<svg width="128" height="128" viewBox="0 0 128 128" fill="none" xmlns="http://www.w3.org/2000/svg">
<path d="M111.775 63.2332C111.775 57.0321 106.748 52.0051 100.546 52.0051C100.147 52.0051 99.7541 52.0264 99.3663 52.0669L114.788 6.58215H49.2504L64.6505 52.0277C64.4248 52.014 64.1979 52.0051 63.9683 52.0051C57.7671 52.0051 52.7401 57.0321 52.7401 63.2332C52.7401 68.2457 56.025 72.4894 60.5592 73.9332C58.1644 78.0812 55.1512 81.8171 51.7302 85.0444C47.0783 89.4331 41.7543 92.7607 35.9965 94.8113C29.1408 91.2896 25.9032 83.4568 28.8246 76.5896C29.1544 75.8144 29.4911 75.028 29.8132 74.2455C34.7796 73.0863 38.4805 68.6336 38.4805 63.3139C38.4805 57.1127 33.4535 52.0857 27.2524 52.0857C21.0508 52.0857 16.0238 57.1127 16.0238 63.3139C16.0238 67.1168 17.916 70.4751 20.808 72.5064C18.0287 78.8343 13.9438 85.4562 12.671 93.1311C11.1457 102.33 12.6663 112.093 20.6215 117.607C39.1491 130.448 59.2605 109.647 80.4654 104.418C88.1501 102.522 96.5857 102.828 103.356 98.9064C108.441 95.9616 111.793 91.0814 112.744 85.6021C113.684 80.1894 112.314 74.8002 109.163 70.4303C110.793 68.4812 111.775 65.9724 111.775 63.2332ZM75.1956 63.2729C75.1956 63.2597 75.1969 63.2465 75.1969 63.2332C75.1969 59.1611 73.0286 55.5951 69.7842 53.6268L82.0415 28.8414L94.3201 53.8897C91.3048 55.9027 89.3178 59.3356 89.3178 63.2332C89.3178 63.3152 89.3225 63.3958 89.3242 63.4773L75.1956 63.2729Z" fill="#C63D14"/>
<path d="M114.517 63.2332C114.517 56.413 109.603 50.7221 103.13 49.5065L118.613 3.83997H45.4256L60.9323 49.5991C54.6847 50.9896 49.9981 56.573 49.9981 63.2332C49.9981 68.2351 52.6413 72.6284 56.6029 75.0971C54.6975 77.9358 52.4378 80.6071 49.8484 83.0498C45.7421 86.9239 41.167 89.8619 36.2347 91.7947C31.2671 88.6741 29.167 82.7895 31.3481 77.6627L31.5188 77.2616C31.6255 77.0107 31.7325 76.759 31.8392 76.5073C37.2954 74.6048 41.2229 69.411 41.2229 63.3139C41.2229 55.6104 34.9556 49.3435 27.2521 49.3435C19.5487 49.3435 13.2818 55.6104 13.2818 63.3139C13.2818 67.2021 14.8796 70.723 17.4516 73.2582C16.9852 74.2523 16.495 75.2627 15.9911 76.2978C13.6393 81.1281 10.9739 86.6031 9.96572 92.6826C7.96337 104.757 11.1928 114.409 19.0593 119.861C23.8328 123.169 28.6802 124.471 33.5583 124.47C42.744 124.47 52.0355 119.855 61.1235 115.341C67.669 112.09 74.4368 108.729 81.1222 107.08C83.6097 106.467 86.1692 106.097 88.879 105.707C94.2524 104.931 99.8093 104.13 104.731 101.28C110.436 97.975 114.342 92.4318 115.446 86.0714C116.394 80.6114 115.253 75.1432 112.47 70.5054C113.768 68.3857 114.517 65.8956 114.517 63.2332ZM109.033 63.2332C109.033 67.9125 105.226 71.7196 100.546 71.7196C95.8674 71.7196 92.0602 67.9125 92.0602 63.2332C92.0602 58.554 95.8674 54.7473 100.546 54.7473C105.226 54.7473 109.033 58.554 109.033 63.2332ZM110.963 9.32434L97.2903 49.6499C96.6977 49.792 96.12 49.9712 95.5589 50.1866L82.0523 22.6334L68.5065 50.0236C67.9211 49.8218 67.3187 49.6559 66.7009 49.533L53.0753 9.32434H110.963ZM63.9685 54.7473C68.6477 54.7473 72.4545 58.554 72.4545 63.2332C72.4545 67.9125 68.6477 71.7196 63.9685 71.7196C59.2897 71.7196 55.4825 67.9125 55.4825 63.2332C55.4825 58.554 59.2897 54.7473 63.9685 54.7473ZM27.2521 54.8279C31.9318 54.8279 35.7385 58.6346 35.7385 63.3139C35.7385 67.9931 31.9318 71.8003 27.2521 71.8003C22.5733 71.8003 18.7661 67.9931 18.7661 63.3139C18.7661 58.6346 22.5733 54.8279 27.2521 54.8279ZM110.043 85.1332C109.217 89.8897 106.279 94.045 101.982 96.5333C97.9772 98.8531 93.1777 99.5456 88.0961 100.278C85.3739 100.671 82.5588 101.077 79.8089 101.755C72.5377 103.548 65.4947 107.046 58.6838 110.429C45.0539 117.199 33.2826 123.046 22.1837 115.353C14.0536 109.719 14.4291 99.293 15.3763 93.5799C16.2539 88.2871 18.6271 83.4124 20.9221 78.6982C21.3193 77.8824 21.705 77.0833 22.0835 76.2892C23.2218 76.7445 24.4323 77.0547 25.6939 77.1955C23.3579 84.9058 27.032 93.2889 34.7431 97.2505L35.7983 97.7928L36.9161 97.3947C43.0123 95.2239 48.6294 91.7397 53.612 87.0391C56.8329 84.0008 59.6007 80.6391 61.8765 77.047C62.5592 77.1498 63.2577 77.204 63.9685 77.204C71.672 77.204 77.9393 70.9371 77.9393 63.2332C77.9393 59.0903 76.1247 55.3647 73.2506 52.8038L82.0306 35.0494L90.8997 53.1422C88.2386 55.6876 86.5759 59.2687 86.5759 63.2332C86.5759 70.9371 92.8427 77.204 100.546 77.204C103.506 77.204 106.252 76.2764 108.513 74.7003C110.083 77.9144 110.668 81.5309 110.043 85.1332Z" fill="white"/>
</svg>
